<?xml version="1.0" encoding="iso-8859-1"?>
<!-- Generator: Adobe Illustrator 19.0.0, SVG Export Plug-In . SVG Version: 6.00 Build 0)  -->
<svg version="1.1" id="Capa_1" xmlns="http://www.w3.org/2000/svg" xmlns:xlink="http://www.w3.org/1999/xlink" x="0px" y="0px"
	 viewBox="0 0 512.002 512.002" style="enable-background:new 0 0 512.002 512.002;" xml:space="preserve">
<path style="fill:#0387D8;" d="M7.606,209.071c5.657,0.608,11.953,0.963,19.121,0.963c59.706,0,59.706-24.373,119.412-24.373
	s59.706,24.373,119.412,24.373c59.716,0,59.716-24.373,119.423-24.373s59.706,24.373,119.423,24.373v71.355
	c-59.706,0-59.706,24.363-119.412,24.363s-59.706-24.363-119.412-24.363s-59.706,24.363-119.412,24.363
	c-59.716,0-59.716-24.363-119.423-24.363c-7.168,0-13.474,0.355-19.132,0.963"/>
<path style="fill:#F9DCA2;" d="M356.373,240.835l-41.568,41.568l-153.194,5.495l-44.508,1.602l1.865-16.141
	c27.901-37.584,60.467-57.719,89.149-68.395l16.617-3.68l33.782-7.492c14.589-1.146,23.704-0.02,23.704-0.02L356.373,240.835z"/>
<path style="fill:#E5C691;" d="M228.627,225.628c0,0-56.776,15.208-66.915,61.845c-0.03,0.142-0.061,0.284-0.101,0.426
	l-44.508,1.602l1.865-16.141c27.901-37.584,60.467-57.719,89.149-68.395l16.617-3.68L228.627,225.628z"/>
<path style="fill:#54BBEF;" d="M504.397,356.208c-59.706,0-59.706,24.363-119.412,24.363s-59.706-24.363-119.412-24.363
	s-59.706,24.363-119.412,24.363c-59.716,0-59.716-24.363-119.423-24.363c-7.168,0-13.474,0.355-19.132,0.963V252.059
	c5.657-0.608,11.964-0.963,19.132-0.963c59.706,0,59.706,24.363,119.423,24.363c59.706,0,59.706-24.363,119.412-24.363
	s59.706,24.363,119.412,24.363s59.706-24.363,119.412-24.363"/>
<path style="fill:#0387D8;" d="M7.606,339.93c5.657,0.608,11.953,0.963,19.121,0.963c59.706,0,59.706-24.373,119.412-24.373
	s59.706,24.373,119.412,24.373c59.716,0,59.716-24.373,119.423-24.373s59.706,24.373,119.423,24.373v41.061
	c-59.706,0-59.706,24.363-119.412,24.363s-59.706-24.363-119.412-24.363s-59.706,24.363-119.412,24.363
	c-59.716,0-59.716-24.363-119.423-24.363c-7.168,0-13.474,0.355-19.132,0.963"/>
<circle style="fill:#F9DCA2;" cx="348.749" cy="200.228" r="66.838"/>
<path style="fill:#E5C691;" d="M319.424,200.226c0-30.399,20.302-56.04,48.081-64.15c-5.953-1.738-12.242-2.687-18.756-2.687
	c-36.913,0-66.838,29.924-66.838,66.838s29.924,66.838,66.838,66.838c6.514,0,12.803-0.949,18.756-2.687
	C339.726,256.267,319.424,230.626,319.424,200.226z"/>
<path style="fill:#7FDD36;" d="M396.012,247.486l-71.893-71.893l-22.629-22.629c17.854-17.854,43.292-23.491,65.941-16.921
	c10.463,3.031,20.328,8.679,28.581,16.921C422.109,179.071,422.109,221.39,396.012,247.486z"/>
<path style="fill:#70C129;" d="M367.502,136.073c-19.831,5.789-35.84,20.51-43.383,39.52l-22.629-22.629
	c17.854-17.854,43.292-23.491,65.941-16.921C367.452,136.063,367.482,136.063,367.502,136.073z"/>
<g>
	<circle style="fill:#5EE5CB;" cx="337.171" cy="188.65" r="16.168"/>
	<circle style="fill:#5EE5CB;" cx="360.185" cy="211.655" r="16.168"/>
</g>
<path style="fill:#F9DCA2;" d="M132.525,158.259l55.831-1.276l25.213,61.237c5.429,13.184,20.793,19.849,33.872,14.172
	c12.678-5.504,18.666-20.174,13.38-33.01l-32.094-77.948c-0.64-1.554-1.422-3.021-2.329-4.386
	c-4.773-7.19-12.972-11.577-21.827-11.354l-73.324,1.715c-14.042,0.353-25.139,12.022-24.786,26.064l0,0
	C106.814,147.515,118.483,158.611,132.525,158.259z"/>
<path style="fill:#E5C691;" d="M259.607,220.225c-13.079,5.678-28.443-0.988-33.872-14.172l-25.213-61.237l-55.831,1.276
	c-14.042,0.353-25.711-10.744-26.064-24.786l0,0c-0.103-4.105,0.779-8.004,2.42-11.48c-8.834,4.168-14.847,13.254-14.586,23.646l0,0
	c0.353,14.042,12.022,25.139,26.064,24.786l55.831-1.276l25.213,61.237c5.429,13.184,20.793,19.849,33.872,14.172
	c5.886-2.555,10.327-7.087,12.87-12.493C260.077,220.008,259.846,220.12,259.607,220.225z"/>
<path d="M504.398,243.491c-31.343,0-47.221,6.479-62.578,12.744c-3.888,1.587-5.754,6.024-4.167,9.913
	c1.203,2.948,4.044,4.734,7.043,4.734c0.956,0,1.928-0.182,2.869-0.566c14.642-5.975,28.472-11.617,56.833-11.617
	c4.2,0,7.604-3.405,7.604-7.604C512.002,246.895,508.597,243.491,504.398,243.491z"/>
<path d="M504.398,374.351c-31.345,0-47.224,6.48-62.58,12.745c-14.641,5.975-28.471,11.618-56.833,11.618
	c-28.362,0-42.191-5.643-56.833-11.618c-15.356-6.266-31.235-12.745-62.58-12.745c-31.344,0-47.223,6.48-62.579,12.745
	c-14.641,5.975-28.471,11.618-56.833,11.618c-28.368,0-42.2-5.643-56.844-11.619c-4.312-1.759-8.77-3.578-13.609-5.252
	c-3.969-1.371-8.3,0.733-9.671,4.701c-1.373,3.969,0.733,8.299,4.701,9.672c4.448,1.538,8.52,3.2,12.833,4.96
	c15.358,6.267,31.239,12.745,62.59,12.745c31.344,0,47.223-6.48,62.579-12.745c14.641-5.975,28.471-11.618,56.833-11.618
	c28.363,0,42.192,5.643,56.835,11.618c15.356,6.266,31.234,12.745,62.578,12.745s47.223-6.48,62.578-12.745
	c14.642-5.975,28.472-11.618,56.835-11.618c4.2,0,7.604-3.405,7.604-7.604S508.597,374.351,504.398,374.351z"/>
<path d="M47.759,375.485c-6.549-0.763-13.425-1.134-21.02-1.134c-7.119,0-13.645,0.33-19.945,1.007
	c-4.175,0.449-7.197,4.198-6.747,8.373c0.449,4.176,4.193,7.2,8.373,6.747c5.756-0.618,11.748-0.92,18.318-0.92
	c7.002,0,13.302,0.338,19.26,1.033c0.299,0.034,0.596,0.052,0.89,0.052c3.805,0,7.091-2.852,7.542-6.724
	C54.918,379.747,51.931,375.972,47.759,375.485z"/>
<path d="M504.398,333.289c-28.367,0-42.2-5.646-56.843-11.624c-15.356-6.268-31.236-12.749-62.579-12.749
	c-31.345,0-47.224,6.482-62.58,12.75c-14.643,5.978-28.475,11.623-56.842,11.623c-28.362,0-42.191-5.645-56.834-11.623
	c-15.356-6.269-31.234-12.75-62.579-12.75s-47.224,6.483-62.58,12.75c-14.641,5.978-28.471,11.623-56.833,11.623
	c-6.565,0-12.553-0.301-18.308-0.92c-4.18-0.455-7.923,2.573-8.373,6.747c-0.449,4.175,2.572,7.924,6.747,8.373
	c6.3,0.677,12.821,1.007,19.933,1.007c31.345,0,47.225-6.483,62.581-12.75c14.641-5.978,28.471-11.623,56.832-11.623
	s42.19,5.645,56.832,11.623c15.356,6.269,31.236,12.75,62.581,12.75c31.352,0,47.232-6.483,62.59-12.751
	c14.642-5.978,28.472-11.622,56.833-11.622c28.36,0,42.189,5.645,56.832,11.622c15.358,6.27,31.24,12.751,62.591,12.751
	c4.2,0,7.604-3.405,7.604-7.604S508.597,333.289,504.398,333.289z"/>
<path d="M115.763,265.009c-10.343-2.205-18.27-5.437-26.448-8.774c-15.356-6.266-31.235-12.744-62.578-12.744
	c-7.119,0-13.645,0.329-19.945,1.007c-4.175,0.449-7.196,4.198-6.747,8.373c0.449,4.176,4.193,7.2,8.373,6.747
	c5.756-0.618,11.748-0.92,18.318-0.92c28.361,0,42.19,5.643,56.833,11.617c15.357,6.267,31.239,12.746,62.59,12.746
	c31.344,0,47.223-6.48,62.579-12.745c14.641-5.975,28.471-11.618,56.833-11.618s42.192,5.643,56.834,11.618
	c15.356,6.266,31.235,12.745,62.579,12.745c13.626,0,25.499-1.241,36.295-3.793c4.087-0.966,6.616-5.062,5.65-9.149
	c-0.965-4.087-5.064-6.618-9.149-5.65c-9.635,2.278-20.362,3.385-32.796,3.385c-1.735,0-3.413-0.021-5.042-0.063
	c25.505-11.823,43.247-37.654,43.247-67.566c0-0.727-0.034-1.446-0.055-2.168c6.761,1.963,12.603,4.346,18.674,6.825
	c15.356,6.27,31.236,12.753,62.588,12.753c4.2,0,7.604-3.405,7.604-7.604s-3.404-7.604-7.604-7.604
	c-28.368,0-42.198-5.646-56.84-11.625c-7.967-3.252-16.172-6.6-26.69-9.051c-8.237-32.14-37.446-55.969-72.119-55.969
	c-36.091,0-66.256,25.821-73.016,59.958c-3.199-0.099-7.334-0.113-12.255,0.119l-27.72-67.322c-0.819-1.99-1.837-3.907-3.024-5.698
	c-6.322-9.524-16.936-15.026-28.34-14.751l-73.338,1.716c-8.822,0.222-17.029,3.866-23.11,10.26
	c-6.081,6.395-9.308,14.775-9.086,23.596c0.222,8.822,3.866,17.029,10.26,23.11c6.394,6.081,14.764,9.303,23.578,9.086l50.614-1.157
	l8.072,19.606c-11.152-3.509-25.048-6.252-45.244-6.252c-31.345,0-47.224,6.483-62.58,12.75
	c-14.641,5.978-28.471,11.623-56.833,11.623c-6.563,0-12.552-0.3-18.308-0.92c-4.196-0.45-7.924,2.573-8.373,6.748
	c-0.449,4.175,2.572,7.924,6.747,8.372c6.303,0.677,12.822,1.007,19.933,1.007c31.345,0,47.225-6.483,62.581-12.75
	c14.641-5.978,28.471-11.623,56.832-11.623c23.758,0,37.492,4.034,49.329,8.61C164.547,215.354,137.79,236.547,115.763,265.009z
	 M407.982,200.226c0,13.595-4.615,26.126-12.346,36.134l-14.167-14.167c4.387-8.885,2.908-19.957-4.479-27.344
	c-4.452-4.452-10.246-6.741-16.091-6.918c-0.175-5.845-2.466-11.639-6.918-16.09c-7.387-7.387-18.457-8.865-27.343-4.479
	l-14.024-14.025c10.008-7.731,22.538-12.346,36.134-12.346C381.411,140.994,407.982,167.565,407.982,200.226z M331.119,182.595
	c1.669-1.669,3.863-2.504,6.056-2.504c2.192,0,4.385,0.834,6.055,2.504c3.34,3.339,3.34,8.772,0,12.111
	c-3.339,3.34-8.771,3.338-12.11,0C327.779,191.367,327.779,185.935,331.119,182.595z M354.127,205.603
	c1.669-1.669,3.863-2.504,6.056-2.504c2.192,0,4.385,0.834,6.055,2.504c3.34,3.339,3.34,8.772,0,12.111
	c-3.339,3.34-8.771,3.338-12.11,0C350.787,214.375,350.787,208.942,354.127,205.603z M301.862,164.092l14.024,14.024
	c-4.387,8.885-2.908,19.957,4.479,27.343c4.452,4.452,10.245,6.742,16.091,6.918c0.175,5.845,2.466,11.638,6.918,16.09
	c4.634,4.634,10.722,6.951,16.81,6.951c3.615,0,7.223-0.837,10.534-2.472l14.167,14.168c-10.008,7.731-22.538,12.346-36.133,12.346
	c-32.661,0-59.234-26.572-59.234-59.234C289.515,186.631,294.131,174.101,301.862,164.092z M203.939,214.803l2.599,6.311
	c1.598,3.883,6.042,5.735,9.927,4.137c3.883-1.599,5.734-6.043,4.137-9.927l-25.213-61.236c-1.197-2.908-4.075-4.798-7.204-4.707
	l-55.849,1.276c-4.771,0.127-9.283-1.622-12.734-4.903c-3.451-3.282-5.418-7.71-5.537-12.473c-0.12-4.76,1.621-9.283,4.903-12.734
	c3.281-3.451,7.71-5.417,12.458-5.537l73.338-1.716c6.147-0.164,11.89,2.82,15.3,7.958c0.642,0.966,1.19,2,1.632,3.076
	l32.095,77.948c3.673,8.92-0.533,19.301-9.377,23.139c-3.853,1.672-5.62,6.151-3.948,10.003c1.245,2.866,4.041,4.579,6.979,4.579
	c1.011,0,2.038-0.203,3.023-0.631c14.95-6.49,22.746-23.061,18.839-38.466c1.871-0.025,3.55-0.013,5.019,0.021
	c0.153,16.511,5.698,31.753,14.97,44.043c-6.853-0.927-14.634-1.474-23.722-1.474c-31.344,0-47.223,6.48-62.579,12.745
	c-14.641,5.975-28.471,11.618-56.833,11.618c-4.632,0-8.871-0.153-12.795-0.431C153.27,243.774,176.937,226.119,203.939,214.803z"/>
<path d="M315.721,233.634c2.829,1.908,6.728,1.619,9.267-0.646c2.347-2.093,3.168-5.481,2.035-8.415
	c-2.445-6.33-11.722-6.356-14.177,0C311.577,227.856,312.798,231.683,315.721,233.634z"/>
<g>
</g>
<g>
</g>
<g>
</g>
<g>
</g>
<g>
</g>
<g>
</g>
<g>
</g>
<g>
</g>
<g>
</g>
<g>
</g>
<g>
</g>
<g>
</g>
<g>
</g>
<g>
</g>
<g>
</g>
</svg>
