<svg height="512" viewBox="0 0 60 60" width="512" xmlns="http://www.w3.org/2000/svg"><g id="Page-1" fill="none" fill-rule="evenodd"><g id="004---Rollerblading" fill-rule="nonzero"><circle id="Oval" cx="8" cy="53" fill="#ffdc00" r="6"/><circle id="Oval" cx="8" cy="53" fill="#f57c00" r="2"/><circle id="Oval" cx="23" cy="53" fill="#ffdc00" r="6"/><circle id="Oval" cx="23" cy="53" fill="#f57c00" r="2"/><circle id="Oval" cx="38" cy="53" fill="#ffdc00" r="6"/><circle id="Oval" cx="38" cy="53" fill="#f57c00" r="2"/><circle id="Oval" cx="53" cy="53" fill="#ffdc00" r="6"/><circle id="Oval" cx="53" cy="53" fill="#f57c00" r="2"/><path id="Shape" d="m57 41v2c0 2.209139-1.790861 4-4 4h-46c-2.209139 0-4-1.790861-4-4v-2z" fill="#9e9e9e"/><path id="Shape" d="m54 41v2c0 2.209139-1.790861 4-4 4h3c2.209139 0 4-1.790861 4-4v-2z" fill="#707070"/><path id="Shape" d="m57.0002377 41h-44.0002377c0-9.23-6.55-13.47-10.35-15.16l.33-.86 1.16-6.98h2.86c1.90740541.0453885 3.6473176 1.0999962 4.57 2.77l1.62 3.89c.9738615 2.2485771 3.3060388 3.5934389 5.74 3.31 2.7459897-.2456023 4.8641962-2.5234293 4.91-5.28.0033218-.1602602-.0033578-.3205716-.02-.48l-.2-2.17c-.2100115-2.3983505 1.0182118-4.6939116 3.13-5.85l2.9-1.63c1.63 6.09 4.81 12.66 11.02 13.39-1.0156071 1.630046-1.7902823 3.3983263-2.3 5.25-.1483655.6202866.008003 1.2741408.4209478 1.7601907.4129448.4860498 1.032944.7460065 1.6690522.6998093 5.6708024-.4670155 11.3456798.8511785 16.23 3.77.2121276 1.1780375.3158945 2.3730306.3102377 3.57z" fill="#02a9f4"/><g fill="#0377bc"><path id="Shape" d="m8.57 20.77 1.62 3.89c.9738615 2.2485771 3.3060388 3.5934389 5.74 3.31.3060456-.0353788.608709-.0955771.905-.18-1.6351501-.4206592-2.9820113-1.5772231-3.645-3.13l-1.62-3.89c-.9226824-1.6700038-2.66259459-2.7246115-4.57-2.77h-2.86v.011c1.85527367.0889802 3.53187682 1.1331671 4.43 2.759z"/><path id="Shape" d="m37.67 25.95c-1.0156071 1.630046-1.7902823 3.3983263-2.3 5.25-.1483655.6202866.008003 1.2741408.4209478 1.7601907.4129448.4860498 1.032944.7460065 1.6690522.6998093.656-.054 1.427-.09 2.286-.087-1.0183283-.2971899-1.6239183-1.3415686-1.376-2.373.5097177-1.8516737 1.2843929-3.619954 2.3-5.25-6.21-.73-9.39-7.3-11.02-13.39l-2.58 1.45c1.736 5.642 4.881 11.268 10.6 11.94z"/><path id="Shape" d="m56.69 37.43c-4.6871045-2.8042414-10.109322-4.133838-15.562-3.816 4.4383861.2140917 8.7544623 1.5252004 12.562 3.816.2121276 1.1780375.3158945 2.3730306.31 3.57h3c.0058945-1.1969694-.0978724-2.3919625-.31-3.57z"/></g><path id="Shape" d="m56.69 37.43c-4.8843202-2.9188215-10.5591976-4.2370155-16.23-3.77-.6361082.0461972-1.2561074-.2137595-1.6690522-.6998093-.4129448-.4860499-.5693133-1.1399041-.4209478-1.7601907.5097177-1.8516737 1.2843929-3.619954 2.3-5.25l.32.03c10.14.84 14.57 5.26 15.7 11.45z" fill="#cfd8dc"/><path id="Shape" d="m53.255 35.683c1.1864643.4969375 2.3345898 1.0808604 3.435 1.747-1.13-6.19-5.56-10.61-15.7-11.45l-.32-.03c-.062.1-.129.228-.193.336 7.487 1.18 11.313 4.638 12.778 9.397z" fill="#9e9e9e"/><path id="Shape" d="m29.65 12.56-2.9 1.63c-2.1117882 1.1560884-3.3400115 3.4516495-3.13 5.85l.2 2.17c.0166422.1594284.0233218.3197398.02.48-.0458038 2.7565707-2.1640103 5.0343977-4.91 5.28-2.4339612.2834389-4.7661385-1.0614229-5.74-3.31l-1.62-3.89c-.9226824-1.6700038-2.66259459-2.7246115-4.57-2.77h-2.86l1.51-9.03c.20957182-1.26361388 1.01304609-2.34979206 2.16-2.92l9.67-4.84c.3400025-.17046833.7217528-.23987748 1.1-.2l7.73.78c.954134.08671803 1.7085988.84539772 1.79 1.8.2711872 3.02726598.7895829 6.02727208 1.55 8.97z" fill="#0377bc"/><path id="Shape" d="m13 41h-10l-1.05-2.77c-1.27181954-3.4023016-1.26826711-7.1501155.01-10.55l.69-1.84c3.8 1.69 10.35 5.93 10.35 15.16z" fill="#cfd8dc"/><path id="Shape" d="m2.65 25.84-.5 1.324c4.94158124 2.8378018 7.9489358 8.1384079 7.85 13.836h3c0-9.23-6.55-13.47-10.35-15.16z" fill="#9e9e9e"/><path id="Shape" d="m53 47c-3.3137085 0-6 2.6862915-6 6h-3c0-3.3137085-2.6862915-6-6-6z" fill="#37474f"/><path id="Shape" d="m8 47h15c-3.3137085 0-6 2.6862915-6 6h-3c0-3.3137085-2.6862915-6-6-6z" fill="#37474f"/><path id="Shape" d="m23 47h15c-3.3137085 0-6 2.6862915-6 6h-3c0-3.3137085-2.6862915-6-6-6z" fill="#37474f"/><circle id="Oval" cx="18" cy="22" fill="#ffdc00" r="2"/><path id="Shape" d="m2 41.183v1.817c.00123346 1.6561525.82245927 3.2042362 2.193 4.134-2.71354437 1.7518302-3.87619028 5.1328451-2.81395241 8.1830717 1.06223787 3.0502267 4.07354693 4.9776666 7.28827266 4.6649837 3.21472575-.3126829 5.79815695-2.7842998 6.25267975-5.9820554h1.16c.494295 3.441787 3.4428998 5.9971786 6.92 5.9971786s6.425705-2.5553916 6.92-5.9971786h1.16c.494295 3.441787 3.4428998 5.9971786 6.92 5.9971786s6.425705-2.5553916 6.92-5.9971786h1.16c.4677223 3.280823 3.1719975 5.7840891 6.4791127 5.9975196 3.3071153.2134304 6.3107224-1.9214676 7.1962756-5.1149546.8855531-3.193487-.5896424-6.5703559-3.5343883-8.090565 1.122794-.9401061 1.7737353-2.32761 1.779-3.792v-2c.0027552-1.2609511-.1097123-2.5195166-.336-3.76-.006-.027-.01-.053-.017-.079-1.379-7.275-6.927-11.371-16.57-12.176-3.922-.327-6.578-3.276-8.376-6.951-.0092437-.022662-.0199323-.0447073-.032-.066-2.49-5.132-3.318-11.653-3.569-14.468-.132134-1.4299646-1.259107-2.56574199-2.688-2.709l-7.737-.776c-.5637008-.05676929-1.1319544.04724298-1.639.3l-9.678 4.838c-1.43135864.7180609-2.43434985 2.07581382-2.7 3.655l-2.648 15.912c-.133.355-1.022 2.715-.983 2.611-1.36454916 3.6260277-1.36952258 7.6235883-.014 11.253zm.9-13.148.308-.818c3.502 1.783 8.331 5.547 8.748 12.783h-8.266l-.806-2.12c-1.1838511-3.1758989-1.1781677-6.6729658.016-9.845zm2.09-9.035h2.01c1.5026296.0510008 2.87623483.8625054 3.646 2.154l1.62 3.889c1.0437641 2.4180425 3.4333733 3.976586 6.067 3.957.2338209-.0000424.4674775-.0123929.7-.037 3.2550211-.2968847 5.7592064-3.0057223 5.8-6.274.0033709-.1909985-.0049781-.3820239-.025-.572l-.2-2.175c-.1669272-2.0028819.8619723-3.9160471 2.625-4.881l1.819-1.023c.4325805 1.4456753.9621141 2.8605488 1.585 4.235l-3.412 4.085c-.3540145.4241547-.2971546 1.0549855.127 1.409.4241547.3540145 1.0549855.2971547 1.409-.127l2.866-3.432c.6146257 1.0926368 1.3433655 2.1170291 2.174 3.056l-2.57 3.096c-.22865.2747372-.2933607.6505882-.1697563.9859735.1236045.3353853.4167456.579352.769.64.3522545.0606481.7101063-.0712363.9387563-.3459735l2.487-2.989c1.1291454.939279 2.4468624 1.6250784 3.864 2.011-.7436163 1.3571034-1.3211066 2.7988147-1.72 4.294-.2268227.9331388.0067837 1.9184691.6283827 2.6504604.6215991.7319912 1.5560569 1.1221662 2.5136173 1.0495396 5.3057564-.43062 10.6176135.7546733 15.237 3.4.0961337.6442335.1575557 1.2931704.184 1.944h-42.007c-.425-8.421-6.076-12.7-10.039-14.668.061-.162-.017.173 1.073-6.332zm3.01 39c-2.63112652-.000537-4.81165714-2.0401079-4.98776677-4.6653341-.17610963-2.6252261 1.71246565-4.9377673 4.31994529-5.2897289s5.04159608 1.377096 5.56782148 3.955063h-2.084c-.4870363-1.3775467-1.89566623-2.2038721-3.33573306-1.9567957s-2.49269406 1.4956868-2.49269406 2.9567957 1.05262723 2.7097193 2.49269406 2.9567957 2.84869676-.579249 3.33573306-1.9567957h2.084c-.4784327 2.3264168-2.5248992 3.9970017-4.9 4zm38.08-6h-1.16c-.2181401-1.5203663-.9316674-2.9263314-2.03-4h5.22c-1.0983326 1.0736686-1.8118599 2.4796337-2.03 4zm-3.18 0h-2.084c-.4174114-1.1981296-1.5472421-2.0009455-2.816-2.0009455s-2.3985886.8028159-2.816 2.0009455h-2.084c.4731925-2.330324 2.5221184-4.0050126 4.9-4.0050126s4.4268075 1.6746886 4.9 4.0050126zm-3.9 1c0 .5522847-.4477153 1-1 1s-1-.4477153-1-1 .4477153-1 1-1 1 .4477153 1 1zm-7.92-1h-1.16c-.2181401-1.5203663-.9316674-2.9263314-2.03-4h5.22c-1.0983326 1.0736686-1.8118599 2.4796337-2.03 4zm-3.18 0h-2.084c-.4174114-1.1981296-1.5472421-2.0009455-2.816-2.0009455s-2.3985886.8028159-2.816 2.0009455h-2.084c.4731925-2.330324 2.5221184-4.0050126 4.9-4.0050126s4.4268075 1.6746886 4.9 4.0050126zm-3.9 1c0 .5522847-.4477153 1-1 1s-1-.4477153-1-1 .4477153-1 1-1 1 .4477153 1 1zm-7.92-1h-1.16c-.2181401-1.5203663-.9316674-2.9263314-2.03-4h5.22c-1.0983326 1.0736686-1.8118599 2.4796337-2.03 4zm-7.08 1c0 .5522847-.44771525 1-1 1s-1-.4477153-1-1 .44771525-1 1-1 1 .4477153 1 1zm14 5c-2.3751008-.0029983-4.4215673-1.6735832-4.9-4h2.083c.4174114 1.1981296 1.5472421 2.0009455 2.816 2.0009455s2.3985886-.8028159 2.816-2.0009455h2.085c-.4784327 2.3264168-2.5248992 3.9970017-4.9 4zm15 0c-2.3751008-.0029983-4.4215673-1.6735832-4.9-4h2.083c.4174114 1.1981296 1.5472421 2.0009455 2.816 2.0009455s2.3985886-.8028159 2.816-2.0009455h2.085c-.4784327 2.3264168-2.5248992 3.9970017-4.9 4zm20-5c.0025816 2.5687655-1.9417423 4.7215532-4.4975039 4.9797109-2.5557617.2581578-4.8913243-1.4623181-5.4024961-3.9797109h2.083c.4870363 1.3775467 1.8956662 2.2038721 3.3357331 1.9567957 1.4400668-.2470764 2.492694-1.4956868 2.492694-2.9567957s-1.0526272-2.7097193-2.492694-2.9567957c-1.4400669-.2470764-2.8486968.579249-3.3357331 1.9567957h-2.083c.5111718-2.5173928 2.8467344-4.2378687 5.4024961-3.9797109 2.5557616.2581577 4.5000855 2.4109454 4.4975039 4.9797109zm-6 0c0-.5522847.4477153-1 1-1s1 .4477153 1 1-.4477153 1-1 1-1-.4477153-1-1zm-45-7c-1.65685425 0-3-1.3431458-3-3v-1h52v1c0 1.6568542-1.3431458 3-3 3zm48.112-10.564c-4.5765551-2.2204921-9.6633983-3.1775118-14.734-2.772-.3172506.0234287-.6263156-.1076446-.83-.352-.2065603-.2373945-.2845439-.5605226-.209-.866.4255215-1.5551162 1.0571206-3.0463358 1.878-4.434 7.493.688 12.088 3.46 13.895 8.424zm-48.479-26.3c.15970632-.94733144.76089273-1.76203371 1.619-2.194l9.678-4.837c.1687402-.08471795.3581878-.11941532.546-.1l7.737.776c.4748896.04796113.8496852.42485053.895.9.2530128 2.82221774.7210384 5.62101116 1.4 8.372l-2.251 1.265c-2.4519228 1.3526584-3.8763801 4.0232218-3.634 6.813l.2 2.2c.0109893.1183279.0149962.2372006.012.356-.042695 2.2459073-1.7757068 4.0963528-4.014 4.286-1.9936409.2335142-3.9060526-.8620748-4.713-2.7l-1.62-3.891c-1.0764513-2.0430838-3.1790877-3.3388411-5.488-3.382h-1.677z" fill="#000"/><path id="Shape" d="m18 25c1.2133867 0 2.3072956-.7309265 2.7716386-1.8519497s.2076757-2.4113767-.6503183-3.2693706c-.8579939-.857994-2.1483474-1.1146613-3.2693706-.6503183s-1.8519497 1.5582519-1.8519497 2.7716386c0 1.6568542 1.3431458 3 3 3zm0-4c.5522847 0 1 .4477153 1 1s-.4477153 1-1 1-1-.4477153-1-1 .4477153-1 1-1z" fill="#000"/></g></g></svg>