<svg height="512pt" viewBox="0 -28 512 511" width="512pt" xmlns="http://www.w3.org/2000/svg"><path d="m325.53125 118.105469-32.652344-5.753907 10.027344-56.886718 32.652344 5.753906zm0 0" fill="#2081f6"/><path d="m292.394531 73.320312 46.9375 8.277344 3.015625-17.109375c1.015625-5.765625-2.832031-11.265625-8.601562-12.28125l-26.050782-4.597656c-5.765624-1.015625-11.265624 2.835937-12.285156 8.601563zm0 0" fill="#9ac6c3"/><path d="m342.460938 129.464844-16.261719 92.242187-33.949219-5.980469-35.429688-6.25 16.257813-92.242187c1.363281-7.71875 8.722656-12.867187 16.433594-11.507813l1.136719.199219 40.3125 7.109375c7.710937 1.359375 12.859374 8.710938 11.5 16.429688zm0 0" fill="#38aaff"/><path d="m292.25 215.726562-35.429688-6.25 16.257813-92.242187c1.363281-7.71875 8.722656-12.867187 16.433594-11.507813l1.136719.199219c1.53125 7.257813 2.8125 14.691407 3.820312 22.238281 4.203125 31.460938 3.390625 62.0625-2.21875 87.5625zm0 0" fill="#2081f6"/><path d="m282.578125 129.753906c-9.539063-71.371094-43.058594-125.777344-74.863281-121.527344-31.808594 4.25-49.859375 65.554688-40.316406 136.925782 9.539062 71.367187 43.058593 125.777344 74.863281 121.527344 31.808593-4.253907 49.859375-65.558594 40.316406-136.925782zm0 0" fill="#ffb38c"/><path d="m264.375 132.1875c-9.539062-71.371094-34.910156-126.867188-56.660156-123.960938-21.753906 2.90625-31.65625 63.121094-22.113282 134.492188 9.539063 71.367188 34.90625 126.867188 56.660157 123.960938 21.753906-2.910157 31.652343-63.125 22.113281-134.492188zm0 0" fill="#e78e6f"/><path d="m136.402344 198.921875-44.433594-102.886719c-3.007812-6.960937.199219-15.042968 7.160156-18.050781 6.964844-3.007813 15.046875.199219 18.054688 7.160156l44.433594 102.890625" fill="#df9563"/><path d="m375.597656 198.921875 44.433594-102.886719c3.007812-6.960937-.199219-15.042968-7.160156-18.050781-6.964844-3.007813-15.046875.199219-18.054688 7.160156l-44.433594 102.890625" fill="#df9563"/><path d="m242.789062 282.035156-223.890624 66.566406c-15.199219 4.519532-15.199219 26.039063 0 30.558594l223.890624 66.566406c8.621094 2.566407 17.800782 2.566407 26.421876 0l223.890624-66.566406c15.199219-4.519531 15.199219-26.039062 0-30.558594l-223.890624-66.566406c-8.621094-2.5625-17.800782-2.5625-26.421876 0zm0 0" fill="#f55"/><path d="m493.101562 379.164062-19.621093 5.839844-204.269531-60.742187c-8.621094-2.558594-17.800782-2.558594-26.421876 0l-204.269531 60.742187-19.621093-5.839844c-15.199219-4.523437-15.199219-26.042968 0-30.5625l223.890624-66.570312c8.621094-2.558594 17.800782-2.558594 26.421876 0l223.890624 66.570312c15.199219 4.519532 15.199219 26.039063 0 30.5625zm0 0" fill="#f72b2b"/><path d="m132.917969 299.539062h-26.121094c-6.460937 0-11.699219-5.238281-11.699219-11.699218 0-6.464844 5.238282-11.703125 11.699219-11.703125h26.121094zm0 0" fill="#fff0cf"/><path d="m379.082031 299.539062h26.121094c6.460937 0 11.699219-5.238281 11.699219-11.699218 0-6.464844-5.238282-11.703125-11.699219-11.703125h-26.121094zm0 0" fill="#fff0cf"/><path d="m363.667969 352.757812h-215.335938c-11.046875 0-20-8.953124-20-20v-112.101562h255.332031v112.101562c.003907 11.046876-8.953124 20-19.996093 20zm0 0" fill="#df9563"/><path d="m383.671875 304.425781v28.328125c0 11.050782-8.960937 20-20 20h-215.34375c-11.039063 0-20-8.949218-20-20v-28.328125c0 11.039063 8.960937 20 20 20h215.34375c11.039063 0 20-8.960937 20-20zm0 0" fill="#c87c5b"/><path d="m378.3125 242.410156h-244.625c-9.769531 0-17.6875-7.917968-17.6875-17.6875v-36.8125c0-5.523437 4.476562-10 10-10h260c5.523438 0 10 4.476563 10 10v36.8125c0 9.769532-7.917969 17.6875-17.6875 17.6875zm0 0" fill="#fff0cf"/><path d="m237.21875 344.625c0 20.460938-16.585938 37.046875-37.046875 37.046875-20.457031 0-37.042969-16.585937-37.042969-37.046875 0-20.457031 16.585938-27.894531 37.042969-27.894531 20.460937 0 37.046875 7.433593 37.046875 27.894531zm0 0" fill="#e6f072"/><path d="m237.214844 344.621094c0 20.46875-16.578125 37.046875-37.042969 37.046875-3.972656 0-7.792969-.625-11.378906-1.78125 14.894531-4.792969 25.679687-18.769531 25.679687-35.265625 0-16.480469-10.785156-24.511719-25.679687-27.003906 3.585937-.605469 7.40625-.886719 11.378906-.886719 20.464844 0 37.042969 7.4375 37.042969 27.890625zm0 0" fill="#a2d961"/><path d="m274.261719 373.09375c0 20.460938-16.585938 37.046875-37.046875 37.046875-20.457032 0-37.042969-16.585937-37.042969-37.046875 0-20.457031 16.585937-27.894531 37.042969-27.894531 20.460937 0 37.046875 7.4375 37.046875 27.894531zm0 0" fill="#e6f072"/><path d="m274.257812 373.09375c0 20.464844-16.578124 37.042969-37.042968 37.042969-3.972656 0-7.792969-.625-11.378906-1.78125 14.894531-4.792969 25.679687-18.769531 25.679687-35.261719 0-16.484375-10.785156-24.515625-25.679687-27.007812 3.585937-.605469 7.40625-.886719 11.378906-.886719 20.464844 0 37.042968 7.4375 37.042968 27.894531zm0 0" fill="#a2d961"/><path d="m207.832031 85.75 24.742188-3.308594c4.105469-.550781 6.988281-4.320312 6.441406-8.429687-.550781-4.101563-4.320313-6.984375-8.429687-6.4375l-24.742188 3.304687c-4.105469.550782-6.988281 4.324219-6.4375 8.429688.503906 3.769531 3.722656 6.507812 7.421875 6.507812.332031 0 .667969-.023437 1.003906-.066406zm0 0"/><path d="m235.792969 106.511719-24.742188 3.308593c-4.105469.546876-6.988281 4.320313-6.441406 8.425782.503906 3.769531 3.726563 6.507812 7.425781 6.507812.332032 0 .664063-.023437 1.003906-.066406l24.742188-3.308594c4.105469-.546875 6.988281-4.320312 6.4375-8.425781-.546875-4.105469-4.320312-6.988281-8.425781-6.441406zm0 0"/><path d="m495.242188 341.414062-104.074219-30.945312v-3.429688h14.035156c10.585937 0 19.203125-8.613281 19.203125-19.199218 0-10.589844-8.613281-19.203125-19.203125-19.203125h-14.035156v-22.265625c7.378906-4.398438 12.332031-12.453125 12.332031-21.648438v-36.8125c0-6.359375-3.421875-11.917968-8.507812-14.984375l31.925781-73.917969c4.640625-10.746093-.328125-23.269531-11.074219-27.910156-10.75-4.640625-23.269531.324219-27.910156 11.074219l-38.109375 88.238281h-6.964844l6.992187-39.640625c1.894532-10.761719-4.53125-21.09375-14.636718-24.382812l3.0625-17.371094c.355468.050781.710937.082031 1.066406.082031 3.570312 0 6.734375-2.5625 7.375-6.199218l3.015625-17.105469c1.734375-9.832031-4.851563-19.238281-14.683594-20.972657l-26.054687-4.59375c-9.824219-1.730468-19.238282 4.855469-20.96875 14.683594l-3.015625 17.109375c-.707031 3.996094 1.898437 7.804688 5.839843 8.632813l-3.066406 17.390625c-1.175781-.039063-2.347656.007812-3.503906.15625-5.1875-21.316407-12.585938-40.863281-21.628906-56.804688-2.042969-3.601562-6.621094-4.867187-10.226563-2.824219-3.601562 2.046876-4.867187 6.621094-2.820312 10.226563 12.300781 21.6875 21.371093 50.789063 25.535156 81.949219 1.800781 13.480468 2.621094 26.792968 2.460937 39.664062h-97.976562c-1.980469-8.53125-3.605469-17.328125-4.796875-26.253906-4.476563-33.496094-2.910156-65.644531 4.414063-90.515625 6.628906-22.519531 17.371093-36.359375 29.460937-37.976563 6.71875-.898437 13.886719 1.828126 21.308594 8.101563 3.164062 2.671875 7.898437 2.273437 10.570312-.890625s2.277344-7.894531-.886719-10.566406c-10.644531-8.996094-22.046874-12.972656-32.976562-11.515625-18.496094 2.472656-33.363281 19.738281-41.867188 48.609375-7.90625 26.847656-9.640624 61.203125-4.890624 96.742187 1.097656 8.210938 2.527343 16.339844 4.265624 24.265625h-2.050781l-38.109375-88.238281c-4.640625-10.746094-17.160156-15.714844-27.910156-11.070313-10.746094 4.640626-15.714844 17.160157-11.074219 27.910157l31.925781 73.917969c-5.085937 3.0625-8.507812 8.625-8.507812 14.984374v36.8125c0 9.195313 4.953125 17.25 12.332031 21.648438v22.265625h-14.035156c-10.585937 0-19.203125 8.613281-19.203125 19.199219 0 10.589844 8.613281 19.203125 19.203125 19.203125h14.035156v3.429687l-104.074219 30.941406c-10.179687 3.027344-16.757812 11.847657-16.757812 22.46875 0 10.621094 6.578125 19.441407 16.757812 22.464844l59.214844 17.605469c.714844.214844 1.433594.3125 2.140625.3125 3.234375 0 6.21875-2.105469 7.1875-5.363281 1.179688-3.96875-1.082031-8.144532-5.054687-9.324219l-59.210938-17.605469c-5.601562-1.667968-6.035156-6.613281-6.035156-8.089844 0-1.476562.433594-6.425781 6.035156-8.089843l99.800782-29.671875v6.636718c0 15.164063 12.335937 27.5 27.5 27.5h10.132812c5.828125 15.503907 20.0625 26.925782 37.125 28.679688 6.398438 16.761719 22.636719 28.703125 41.621094 28.703125 24.5625 0 44.546875-19.984375 44.546875-44.546875 0-4.664062-.738281-8.960938-2.171875-12.835938h84.074218c15.164063 0 27.5-12.335937 27.5-27.5v-6.636718l99.800782 29.671875c5.597656 1.664062 6.035156 6.613281 6.035156 8.089843 0 1.476563-.4375 6.425782-6.035156 8.089844l-223.894532 66.566406c-7.242187 2.152344-14.898437 2.152344-22.144531 0l-127.421875-37.886718c-3.972656-1.179688-8.148437 1.082031-9.328125 5.054687-1.179687 3.96875 1.082031 8.144531 5.054688 9.324219l127.421875 37.886719c5.019531 1.492187 10.183594 2.238281 15.347656 2.238281s10.328125-.746094 15.347656-2.238281l223.894532-66.570313c10.179687-3.023437 16.757812-11.84375 16.757812-22.464844 0-10.621093-6.578125-19.441406-16.757812-22.46875zm-90.039063-57.777343c2.316406 0 4.199219 1.886719 4.199219 4.203125s-1.882813 4.199218-4.199219 4.199218h-14.039063v-8.398437h14.039063zm-3.5-195.515625c.660156-1.53125 1.875-2.707032 3.421875-3.324219 1.546875-.613281 3.242188-.585937 4.769531.074219 1.53125.660156 2.710938 1.875 3.324219 3.421875s.585938 3.242187-.070312 4.769531l-33.40625 77.347656h-13.578126zm-78.203125-1.699219-3.023438 17.144531-17.878906-3.152344 3.023438-17.148437zm-20.703125-28.90625c.296875-1.6875 1.910156-2.820313 3.597656-2.519531l26.050781 4.59375c1.6875.296875 2.816407 1.910156 2.519532 3.597656l-1.714844 9.722656-32.164062-5.671875zm-12.789063 71.242187c-.707031-5.304687-1.570312-10.550781-2.542968-15.730468.25.015625.5.039062.746094.082031l41.441406 7.308594c3.632812.640625 6.066406 4.117187 5.425781 7.746093l-7.449219 42.246094h-35.03125c.164063-13.542968-.699218-27.519531-2.589844-41.652344zm-187.902343-43.886718c1.527343-.664063 3.222656-.6875 4.769531-.074219s2.761719 1.792969 3.421875 3.324219l35.539063 82.289062h-13.578126l-33.40625-77.347656c-1.359374-3.15625.097657-6.832031 3.253907-8.191406zm4.691406 207.167968c-2.316406 0-4.199219-1.882812-4.199219-4.199218 0-2.320313 1.882813-4.203125 4.199219-4.203125h14.039063v8.402343zm63.832031 52.585938c0-13.53125 9.9375-20.394531 29.542969-20.394531 16.222656 0 25.820313 4.671875 28.648437 13.886719-8.769531.902343-16.125 3.273437-21.925781 7.09375-9.304687 6.128906-14.222656 15.769531-14.222656 27.882812 0 .035156.003906.070312.003906.109375-12.671875-3.328125-22.046875-14.878906-22.046875-28.578125zm66.585938 58.015625c-16.289063 0-29.542969-13.253906-29.542969-29.546875 0-13.53125 9.9375-20.394531 29.542969-20.394531 19.605468 0 29.546875 6.863281 29.546875 20.394531 0 16.292969-13.253907 29.546875-29.546875 29.546875zm126.453125-57.382813h-94.410157c-.496093 0-.980468.050782-1.453124.144532-.089844-.0625-.175782-.128906-.269532-.191406-6.109375-4.023438-13.945312-6.445313-23.34375-7.226563-3.015625-18.332031-18.835937-28.753906-44.019531-28.753906-12.550781 0-22.753906 2.527343-30.320313 7.511719-9.304687 6.132812-14.222656 15.773437-14.222656 27.882812 0 .210938.011719.421875.015625.632812h-7.308593c-6.894532 0-12.5-5.609374-12.5-12.5v-82.847656h182.394531c4.140625 0 7.5-3.359375 7.5-7.5s-3.359375-7.5-7.5-7.5h-184.542969c-5.617188 0-10.1875-4.570312-10.1875-10.1875v-36.8125c0-1.378906 1.121094-2.5 2.5-2.5h260c1.378906 0 2.5 1.121094 2.5 2.5v36.8125c0 5.617188-4.570312 10.1875-10.1875 10.1875h-26.171875c-4.144531 0-7.5 3.359375-7.5 7.5s3.355469 7.5 7.5 7.5h24.027344v82.847656c0 6.890626-5.609375 12.5-12.5 12.5zm0 0"/><path d="m350.472656 265.964844h-.109375c-.011719 0-.023437 0-.035156 0-4.125 0-7.480469 3.335937-7.5 7.464844-.019531 4.144531 3.324219 7.515624 7.464844 7.535156h.109375.035156c4.125 0 7.480469-3.335938 7.5-7.464844.019531-4.144531-3.324219-7.515625-7.464844-7.535156zm0 0"/><path d="m318.382812 265.964844h-.109374c-.011719 0-.023438 0-.035157 0-4.125 0-7.480469 3.335937-7.5 7.464844-.019531 4.144531 3.324219 7.515624 7.464844 7.535156h.109375.035156c4.125 0 7.480469-3.335938 7.5-7.464844.019532-4.144531-3.324218-7.515625-7.464844-7.535156zm0 0"/><path d="m286.289062 265.964844h-.105468c-.011719 0-.023438 0-.035156 0-4.125 0-7.480469 3.335937-7.5 7.464844-.019532 4.144531 3.324218 7.515624 7.464843 7.535156h.109375.035156c4.125 0 7.480469-3.335938 7.5-7.464844.019532-4.144531-3.324218-7.515625-7.46875-7.535156zm0 0"/></svg>